<?xml version="1.0" standalone="no"?>
<!DOCTYPE svg PUBLIC "-//W3C//DTD SVG 20010904//EN"
 "http://www.w3.org/TR/2001/REC-SVG-20010904/DTD/svg10.dtd">
<svg version="1.0" xmlns="http://www.w3.org/2000/svg"
 width="2000.000000pt" height="2000.000000pt" viewBox="0 0 2000.000000 2000.000000"
 preserveAspectRatio="xMidYMid meet">
<metadata>
Created by potrace 1.11, written by Peter Selinger 2001-2013
</metadata>
<g transform="translate(0.000000,2000.000000) scale(0.100000,-0.100000)"
fill="#000000" stroke="none">
<path d="M4148 18918 c-9 -7 -26 -40 -37 -73 -29 -85 -76 -215 -90 -250 -7
-16 -21 -59 -31 -95 -11 -36 -26 -85 -34 -110 -54 -165 -137 -495 -151 -599
-3 -25 -12 -71 -20 -101 -17 -70 -39 -226 -51 -365 -3 -38 -9 -77 -13 -85 -13
-26 -16 -122 -16 -545 0 -287 4 -425 12 -460 7 -27 15 -70 18 -95 4 -25 8 -56
10 -70 2 -14 6 -52 10 -85 3 -33 12 -89 20 -125 7 -36 18 -87 24 -115 24 -115
41 -184 61 -255 12 -41 23 -85 26 -98 2 -13 11 -40 18 -60 8 -20 22 -64 32
-97 9 -33 20 -64 24 -70 4 -5 18 -41 30 -80 12 -38 26 -74 30 -80 4 -5 15 -32
25 -60 10 -27 42 -100 70 -161 29 -61 56 -121 60 -135 4 -13 15 -35 25 -49 10
-14 33 -57 53 -95 39 -78 171 -298 250 -415 178 -264 365 -490 600 -721 l117
-116 -87 -42 c-49 -24 -98 -48 -110 -54 -13 -6 -23 -14 -23 -17 0 -4 -14 -14
-32 -21 -33 -13 -214 -120 -258 -152 -14 -10 -59 -40 -101 -67 -42 -27 -82
-56 -89 -64 -7 -9 -18 -16 -25 -16 -8 0 -15 -4 -17 -8 -1 -5 -30 -28 -63 -52
-205 -150 -594 -534 -735 -726 -24 -32 -47 -61 -50 -64 -23 -16 -208 -299
-270 -412 -28 -51 -55 -100 -61 -108 -17 -28 -116 -244 -157 -345 -106 -261
-187 -538 -228 -785 -4 -21 -18 -90 -31 -150 -14 -67 -21 -173 -29 -465 -3
-137 -9 -253 -13 -257 -3 -4 -55 -9 -116 -13 -60 -3 -126 -10 -145 -15 -19 -5
-57 -12 -85 -15 -121 -15 -187 -28 -290 -56 -166 -45 -262 -76 -320 -103 -129
-61 -205 -96 -209 -96 -8 0 -140 -83 -154 -96 -7 -8 -17 -14 -22 -14 -7 0
-148 -104 -160 -119 -3 -3 -25 -22 -50 -42 -65 -52 -98 -85 -172 -171 -207
-239 -341 -480 -456 -823 -16 -49 -32 -103 -35 -120 -7 -43 -17 -84 -33 -135
-25 -84 -37 -174 -51 -385 -10 -156 -10 -686 0 -795 17 -196 27 -289 32 -320
3 -14 7 -41 10 -60 3 -19 10 -51 15 -70 5 -19 11 -57 15 -83 8 -69 21 -131 44
-222 11 -44 23 -96 26 -115 3 -19 15 -66 27 -105 11 -38 22 -83 25 -100 10
-65 116 -388 170 -515 134 -318 303 -558 564 -805 130 -123 328 -265 452 -325
36 -17 71 -38 78 -46 6 -8 19 -14 28 -14 9 0 21 -4 27 -8 5 -5 45 -23 89 -42
44 -18 98 -40 120 -50 53 -22 224 -76 305 -95 36 -9 76 -20 90 -25 14 -5 48
-12 75 -16 28 -3 53 -8 56 -10 3 -1 28 -6 55 -9 27 -4 82 -15 123 -26 94 -24
272 -33 666 -33 409 0 634 11 710 35 17 5 53 11 80 14 28 3 61 8 75 10 14 3
39 7 55 9 35 5 117 19 128 22 4 1 13 2 21 3 16 1 46 28 46 40 0 22 -32 42 -90
57 -36 9 -69 20 -75 24 -5 4 -44 18 -85 30 -41 12 -79 26 -85 29 -5 4 -28 13
-50 20 -197 66 -577 271 -725 392 -19 16 -48 39 -64 52 -41 32 -346 336 -379
377 -20 26 -95 124 -111 146 -1 1 -11 5 -23 8 -17 6 -32 -3 -68 -38 -25 -25
-58 -49 -73 -52 -15 -4 -32 -11 -39 -16 -32 -25 -221 8 -328 57 -27 13 -66 31
-85 40 -179 82 -463 322 -629 530 -30 38 -64 80 -75 92 -10 12 -24 30 -30 41
-6 11 -29 45 -51 77 -109 158 -256 454 -301 605 -8 30 -20 66 -26 80 -6 14
-21 76 -34 138 -13 63 -26 117 -29 122 -12 20 -20 138 -20 310 0 201 7 276 30
319 8 16 16 39 19 52 9 53 19 79 27 79 5 0 18 20 30 44 17 38 74 98 143 154
33 26 143 72 187 78 24 3 56 10 71 16 26 10 108 6 127 -7 5 -3 34 -8 64 -11
39 -4 57 -2 63 7 4 7 8 292 9 634 l1 620 29 65 c35 78 52 107 85 146 70 81
205 153 340 180 47 9 96 21 110 26 14 6 39 12 55 15 17 2 91 17 165 33 74 15
173 36 220 45 47 9 148 29 225 45 167 33 279 54 400 75 50 9 137 25 195 35 58
10 128 22 155 25 28 4 77 13 110 20 33 8 105 19 160 25 55 6 132 18 170 25
108 22 151 29 250 39 77 9 141 19 195 30 13 3 54 9 90 12 36 3 79 8 95 9 17 2
68 6 115 10 96 7 90 5 251 126 117 88 279 189 360 224 25 11 52 25 60 31 28
21 170 84 369 164 60 24 255 89 300 99 19 5 78 20 130 34 52 14 117 28 143 31
27 4 86 15 130 26 132 31 497 43 817 27 141 -7 175 -12 225 -27 17 -5 48 -12
70 -15 75 -11 238 -46 254 -54 9 -5 33 -12 55 -15 47 -9 254 -73 280 -88 11
-6 47 -21 80 -33 34 -13 86 -33 116 -45 78 -31 307 -147 337 -170 14 -11 29
-20 34 -20 23 0 282 -163 434 -274 107 -78 293 -234 411 -346 39 -37 81 -71
93 -75 24 -7 51 9 51 31 0 8 4 14 9 14 5 0 20 17 32 38 13 20 25 39 28 42 4 3
24 28 45 55 72 92 410 419 512 497 100 75 269 191 309 210 11 5 47 25 80 44
241 136 587 266 795 299 19 3 43 8 52 11 9 3 25 7 35 9 10 2 40 8 66 14 86 20
196 25 507 26 272 0 454 -7 522 -20 13 -3 64 -12 113 -21 128 -22 133 -23 200
-38 177 -40 346 -88 455 -127 30 -11 71 -24 91 -29 40 -10 216 -80 239 -95 8
-6 42 -22 75 -36 92 -40 284 -160 387 -242 51 -41 162 -145 246 -231 136 -139
156 -156 187 -157 19 -1 38 -2 43 -3 6 -2 63 -10 142 -21 84 -11 118 -17 145
-25 17 -5 53 -12 80 -15 28 -3 59 -8 70 -10 11 -2 41 -7 67 -10 44 -5 96 -15
158 -29 28 -7 116 -22 170 -30 19 -3 58 -10 85 -16 28 -6 109 -21 180 -35 72
-13 161 -31 198 -40 38 -9 87 -18 110 -21 23 -3 78 -14 122 -25 44 -10 132
-30 195 -43 236 -52 293 -67 358 -99 92 -44 181 -136 227 -233 43 -91 43 -89
45 -769 1 -511 3 -535 43 -543 10 -2 36 8 57 22 22 14 42 26 45 26 2 0 40 17
82 37 77 37 79 37 218 39 163 3 226 -7 290 -43 86 -48 184 -163 231 -273 27
-63 28 -70 29 -240 0 -162 -2 -182 -28 -275 -42 -149 -122 -347 -186 -465 -5
-8 -30 -58 -56 -110 -81 -162 -358 -602 -451 -717 -19 -23 -34 -44 -34 -47 0
-3 -20 -32 -44 -63 -24 -32 -61 -83 -82 -114 -21 -31 -56 -76 -76 -100 -20
-24 -63 -78 -96 -119 -32 -41 -93 -112 -136 -157 -43 -46 -94 -102 -115 -125
-20 -23 -47 -51 -60 -62 -14 -12 -54 -48 -90 -81 -37 -33 -82 -71 -101 -84
-19 -13 -39 -29 -45 -35 -30 -33 -189 -122 -251 -140 -11 -4 -59 -7 -106 -8
-114 -2 -127 7 -253 155 -27 31 -60 21 -100 -32 -48 -62 -239 -250 -325 -318
-36 -29 -79 -64 -96 -78 -18 -14 -36 -25 -41 -25 -6 0 -22 -11 -37 -25 -15
-14 -39 -32 -54 -40 -15 -9 -56 -34 -92 -55 -140 -84 -427 -215 -530 -241 -25
-6 -49 -15 -55 -19 -5 -5 -53 -18 -105 -30 -52 -13 -102 -26 -111 -31 -9 -4
-63 -15 -120 -24 -57 -9 -120 -20 -139 -25 -49 -13 -84 -18 -165 -25 -251 -21
-288 -26 -310 -40 -19 -12 -30 -21 -95 -78 -14 -13 -137 -117 -275 -232 -137
-115 -255 -214 -261 -219 -6 -6 -35 -32 -65 -57 -219 -187 -355 -304 -359
-309 -3 -3 -34 -30 -70 -60 -36 -30 -67 -57 -70 -60 -3 -3 -34 -30 -70 -60
-85 -72 -85 -72 -97 -95 -18 -34 2 -60 79 -105 150 -89 316 -184 398 -230 47
-26 103 -58 125 -70 22 -13 69 -39 105 -58 36 -20 120 -66 187 -104 68 -37
126 -68 129 -68 3 0 19 -9 34 -20 16 -12 66 -39 112 -62 46 -23 99 -51 118
-63 19 -12 58 -31 87 -43 67 -29 87 -20 133 60 19 34 62 103 95 155 33 51 71
112 85 135 14 23 40 63 58 89 17 27 32 51 32 55 0 3 15 29 34 57 18 29 35 57
37 62 2 6 29 48 60 95 31 47 82 128 114 180 32 52 73 118 92 145 18 28 33 56
33 63 0 6 4 12 9 12 8 0 24 25 93 143 9 15 27 45 40 65 50 75 78 122 78 128 0
3 13 23 28 43 15 20 33 47 40 61 7 14 43 73 80 131 37 59 101 161 142 228 l75
120 35 -5 c19 -3 69 -16 110 -29 41 -13 116 -31 165 -40 50 -9 113 -23 140
-30 50 -14 92 -20 195 -31 30 -3 89 -13 130 -22 114 -24 689 -23 815 2 50 9
135 26 190 36 252 46 430 109 690 241 112 57 160 86 259 151 236 158 506 419
686 663 33 44 63 85 68 90 5 6 21 33 37 60 16 28 36 59 46 70 18 21 27 37 104
180 26 50 59 110 74 135 24 43 37 72 98 215 85 201 153 410 178 541 9 49 20
103 25 119 5 17 12 47 16 69 3 21 7 46 9 55 1 9 6 41 10 71 4 30 15 93 25 140
10 47 22 117 26 155 4 39 8 84 10 100 26 246 25 938 -1 1076 -2 9 -6 40 -10
70 -10 85 -14 103 -40 202 -29 106 -85 285 -97 307 -15 29 -88 192 -88 196 0
3 -12 23 -27 47 -15 23 -36 58 -45 77 -19 36 -32 55 -109 155 -87 112 -315
322 -394 362 -16 9 -32 19 -35 23 -22 32 -377 198 -460 215 -19 4 -69 18 -110
30 -41 13 -93 26 -115 29 -22 4 -53 8 -70 11 -16 2 -48 7 -70 9 -22 3 -65 10
-95 17 -34 7 -149 12 -298 13 l-243 1 5 50 c6 44 17 117 32 195 25 139 25 928
-1 1110 -2 14 -13 81 -24 150 -11 69 -22 141 -25 160 -3 19 -8 44 -11 55 -3
11 -18 76 -35 145 -16 69 -45 177 -65 240 -20 63 -45 142 -55 175 -16 51 -45
128 -80 210 -46 111 -177 383 -200 415 -10 14 -35 59 -56 100 -22 41 -47 86
-57 100 -45 64 -67 98 -88 138 -13 23 -31 50 -41 59 -10 9 -18 20 -18 26 0 5
-12 24 -27 42 -16 18 -54 69 -86 113 -32 44 -68 89 -79 99 -12 10 -28 30 -37
44 -9 14 -45 59 -81 99 -36 41 -81 91 -100 113 -63 71 -363 370 -434 432 -38
33 -81 72 -94 88 -14 15 -31 27 -39 27 -7 0 -16 6 -19 14 -3 8 -33 35 -67 62
-34 26 -66 51 -72 56 -5 4 -38 30 -72 58 -34 27 -67 50 -72 50 -6 0 -14 6 -18
13 -10 15 -108 88 -143 107 -14 7 -28 17 -31 22 -7 10 -15 16 -135 95 -43 28
-93 63 -110 77 -18 14 -34 26 -37 26 -3 0 -48 27 -100 60 -53 33 -99 60 -103
60 -3 0 -28 16 -54 35 -26 19 -51 35 -54 35 -4 0 -25 12 -49 27 -54 35 -186
108 -258 144 -30 15 -61 34 -68 43 -8 9 -22 16 -33 16 -11 0 -32 8 -46 19 -15
10 -49 30 -77 44 -27 13 -93 46 -145 72 -52 26 -112 56 -132 66 -20 10 -45 22
-55 27 -20 10 -133 63 -173 81 -14 6 -32 15 -40 21 -8 5 -42 20 -75 33 -33 14
-98 41 -145 62 -47 20 -107 46 -135 56 -27 11 -66 28 -86 39 -20 11 -43 20
-50 20 -8 0 -27 7 -44 16 -16 9 -59 27 -95 40 -103 36 -202 74 -235 89 -16 7
-57 23 -90 35 -33 12 -64 25 -70 29 -5 5 -28 13 -50 19 -22 6 -92 29 -155 52
-63 22 -189 65 -280 96 -91 30 -178 61 -195 68 -16 8 -55 19 -85 26 -30 7 -66
18 -80 25 -14 7 -56 22 -95 33 -38 12 -113 37 -165 57 -52 20 -120 45 -150 56
-30 10 -73 28 -95 38 -22 11 -65 30 -95 42 -108 43 -157 65 -183 82 -15 9 -32
17 -38 17 -12 0 -147 61 -179 81 -8 5 -31 17 -50 26 -19 10 -99 53 -178 95
-78 43 -145 78 -149 78 -3 0 -28 16 -54 35 -27 19 -53 35 -58 35 -5 0 -31 15
-57 33 -27 18 -56 37 -64 41 -8 3 -40 23 -71 44 -30 20 -82 54 -115 75 -32 22
-70 47 -84 58 -14 10 -70 51 -125 90 -55 40 -118 87 -140 106 -22 19 -44 37
-50 41 -41 30 -190 156 -235 198 -30 29 -77 72 -104 95 -27 24 -83 80 -125
123 -42 44 -90 93 -107 110 -52 51 -143 157 -197 229 -16 21 -38 48 -50 61
-12 13 -33 40 -47 60 -34 51 -49 66 -65 66 -24 0 -45 -30 -45 -65 0 -19 -5
-46 -11 -62 -5 -15 -13 -64 -17 -108 -9 -101 -9 -584 0 -690 6 -72 53 -285 78
-351 10 -26 10 -27 -12 -11 -13 9 -45 28 -73 41 -27 14 -57 30 -65 35 -8 5
-49 29 -90 52 -95 55 -213 133 -266 176 -23 18 -44 33 -47 33 -10 0 -94 64
-156 118 -29 26 -61 51 -70 56 -9 5 -18 12 -21 16 -3 4 -34 31 -70 61 -88 72
-376 361 -482 484 -139 160 -151 174 -234 285 -43 58 -81 107 -84 110 -15 15
-90 130 -90 139 0 5 -6 14 -12 18 -12 8 -63 81 -104 150 -77 129 -122 203
-141 232 -13 19 -23 41 -23 49 0 8 -10 29 -23 46 -12 17 -38 61 -56 99 -43 85
-53 94 -85 74 -23 -16 -27 -29 -42 -147 -3 -25 -7 -51 -10 -58 -8 -25 -17
-238 -18 -397 0 -217 11 -399 28 -465 7 -30 21 -93 30 -140 24 -120 97 -358
126 -412 6 -10 10 -23 10 -28 0 -6 9 -29 19 -50 11 -22 17 -40 14 -40 -33 0
-513 250 -589 307 -17 13 -34 23 -38 23 -4 0 -27 14 -51 30 -24 17 -46 30 -49
30 -15 0 -374 260 -470 341 -112 94 -419 396 -526 518 -79 89 -189 231 -212
273 -9 16 -25 40 -36 52 -20 23 -102 152 -102 161 0 3 -8 18 -19 33 -10 15
-38 62 -61 105 -45 80 -66 93 -102 65z"/>
<path d="M5647 9264 c-1 -1 -75 -4 -165 -8 -89 -3 -166 -7 -170 -9 -4 -3 -43
-8 -87 -11 -44 -4 -91 -9 -105 -11 -14 -2 -56 -7 -95 -10 -114 -10 -164 -16
-230 -29 -40 -7 -125 -20 -245 -36 -47 -6 -112 -18 -145 -25 -33 -7 -118 -21
-190 -30 -71 -9 -146 -20 -165 -25 -19 -5 -51 -12 -70 -15 -19 -3 -46 -7 -60
-10 -14 -3 -47 -7 -75 -11 -27 -3 -75 -12 -105 -19 -53 -13 -130 -27 -215 -40
-69 -10 -98 -16 -155 -30 -30 -7 -73 -16 -95 -20 -22 -3 -56 -8 -75 -11 -19
-3 -69 -14 -110 -24 -41 -11 -106 -24 -145 -30 -38 -6 -115 -22 -170 -35 -55
-14 -118 -27 -140 -30 -48 -7 -168 -41 -210 -59 -16 -7 -53 -34 -81 -59 -40
-36 -55 -58 -64 -94 -17 -62 -24 -1090 -9 -1173 13 -72 35 -103 169 -240 125
-128 128 -133 200 -350 95 -288 117 -373 170 -660 35 -189 63 -323 85 -398 22
-77 117 -363 144 -437 25 -68 167 -353 206 -415 14 -23 35 -58 47 -78 28 -51
174 -246 234 -312 270 -302 519 -483 895 -653 57 -26 198 -76 274 -98 39 -11
86 -26 106 -34 33 -12 169 -41 239 -50 14 -2 39 -6 55 -9 27 -5 49 -7 165 -21
19 -2 64 -6 100 -10 36 -3 81 -8 100 -10 188 -20 633 -23 754 -5 39 5 85 11
101 11 17 1 71 6 120 11 78 8 125 15 300 44 146 24 506 132 565 169 8 5 21 10
28 11 26 4 279 138 357 188 114 75 278 207 365 295 106 107 240 265 286 336
21 33 46 69 55 80 38 45 200 351 264 500 88 205 214 576 245 725 6 30 20 82
31 115 10 33 21 76 24 95 3 19 15 68 26 108 11 40 22 83 25 95 16 88 29 143
49 213 13 45 27 101 30 125 4 24 8 46 10 50 3 3 16 48 29 100 58 218 136 409
206 504 38 51 129 128 180 151 30 14 69 33 85 41 41 23 293 28 385 9 137 -29
231 -84 311 -183 72 -90 160 -290 209 -473 11 -41 26 -98 34 -127 8 -29 17
-67 20 -85 3 -18 13 -58 22 -88 9 -30 27 -102 40 -160 34 -152 53 -232 84
-350 15 -58 33 -127 40 -155 19 -82 115 -388 158 -505 12 -30 42 -102 67 -160
26 -58 52 -121 60 -141 47 -128 245 -455 366 -604 70 -86 277 -297 344 -350
27 -22 59 -48 70 -58 25 -23 162 -114 235 -156 228 -132 573 -262 785 -297 17
-3 59 -12 95 -20 92 -22 91 -22 151 -29 30 -3 65 -8 79 -10 14 -2 59 -7 100
-10 41 -3 89 -8 105 -10 185 -22 545 -22 805 0 25 2 77 7 115 10 66 5 121 11
190 20 229 30 289 41 400 79 39 13 108 36 155 51 82 26 290 107 320 125 8 5
56 31 105 59 82 45 283 174 295 190 3 3 28 24 55 46 101 80 327 302 373 366
15 21 51 71 80 111 28 40 59 82 68 93 40 52 184 310 214 385 31 76 80 193 94
225 8 17 22 57 32 90 9 33 20 67 25 75 29 56 126 454 143 590 8 63 15 98 31
155 8 28 19 79 25 115 6 36 20 92 31 126 11 33 21 69 23 80 5 23 74 229 114
338 27 74 38 88 143 199 63 65 128 140 144 165 l30 46 2 556 c1 305 -2 580 -7
610 -9 65 -50 138 -94 166 -31 21 -135 61 -179 70 -12 2 -74 15 -137 29 -63
14 -160 35 -215 46 -55 11 -138 28 -185 39 -47 11 -103 22 -125 25 -22 3 -83
14 -135 26 -97 20 -173 34 -245 44 -60 9 -88 14 -170 34 -22 5 -62 13 -90 16
-80 10 -168 25 -200 35 -16 5 -55 12 -85 15 -30 3 -82 10 -115 15 -33 5 -78
12 -100 15 -23 3 -52 8 -65 11 -14 4 -95 17 -180 29 -173 26 -221 34 -229 39
-3 2 -42 7 -86 11 -196 17 -362 34 -400 41 -51 10 -320 17 -635 17 -381 0
-486 -2 -557 -13 -48 -8 -122 -15 -243 -25 -36 -3 -83 -8 -105 -10 -183 -19
-175 -18 -259 -34 -28 -6 -73 -13 -101 -16 -62 -7 -163 -23 -190 -30 -11 -3
-81 -18 -155 -34 -187 -41 -299 -72 -410 -116 -95 -37 -183 -78 -204 -96 -71
-58 -345 -202 -456 -239 l-65 -22 -1139 -2 -1140 -2 -45 23 c-83 41 -217 103
-223 103 -3 0 -35 18 -69 40 -35 22 -82 49 -104 61 -22 12 -42 25 -45 30 -21
32 -278 137 -404 164 -11 3 -40 11 -65 19 -49 15 -124 32 -181 41 -19 3 -57
12 -85 19 -53 15 -136 31 -146 28 -4 -1 -60 8 -125 19 -209 35 -218 36 -319
44 -44 4 -93 8 -110 10 -16 2 -66 6 -110 10 -44 4 -87 8 -95 10 -65 12 -227
18 -533 19 -197 1 -359 1 -360 0z m7247 -885 c-15 -23 -33 -49 -39 -59 -5 -9
-19 -30 -29 -46 -136 -207 -396 -604 -441 -675 -27 -42 -176 -268 -203 -307
-111 -163 -402 -612 -402 -622 0 -5 -3 -10 -8 -10 -4 0 -32 -39 -62 -87 -30
-49 -57 -90 -61 -93 -4 -3 -15 -19 -25 -36 -40 -67 -104 -158 -105 -149 0 6
-2 19 -4 30 -33 175 -39 780 -9 975 2 19 6 46 8 60 2 14 11 48 19 75 9 28 26
81 37 119 20 67 50 142 71 180 6 10 20 35 31 55 34 60 59 93 122 160 57 59
167 151 181 151 3 0 26 13 50 30 37 25 139 76 250 125 104 45 350 117 450 131
22 3 74 14 115 24 41 10 77 16 79 14 2 -2 -9 -22 -25 -45z m-7789 -76 c-14
-21 -33 -51 -43 -66 -9 -16 -107 -165 -217 -332 -257 -390 -311 -473 -360
-551 -23 -36 -47 -72 -53 -82 -12 -16 -146 -219 -440 -667 -216 -329 -226
-344 -229 -341 -20 20 -34 571 -20 801 9 154 14 184 43 274 13 40 24 79 24 86
0 6 22 56 50 111 74 148 193 299 310 393 25 20 52 42 60 50 47 45 217 141 365
206 111 49 316 113 450 140 88 18 88 19 60 -22z m10203 -190 c39 -22 100 -64
134 -93 4 -3 -22 -46 -57 -95 -36 -50 -97 -133 -135 -187 -38 -53 -75 -102
-83 -110 -12 -12 -63 -82 -187 -257 -30 -42 -84 -116 -120 -163 -83 -111 -218
-294 -315 -428 -42 -58 -81 -112 -88 -120 -7 -8 -28 -37 -47 -65 -19 -27 -37
-52 -40 -55 -3 -3 -111 -149 -240 -325 -271 -372 -444 -606 -532 -724 -35 -46
-70 -94 -78 -106 -8 -12 -24 -34 -35 -49 -11 -15 -50 -68 -87 -119 -37 -50
-79 -108 -93 -127 -43 -58 -116 -158 -224 -305 -56 -77 -127 -173 -157 -212
l-55 -73 -29 15 c-16 8 -53 20 -81 26 -29 6 -73 22 -97 35 -25 13 -51 24 -58
24 -15 0 -218 98 -271 131 -37 23 -36 31 19 89 18 20 58 64 88 99 30 35 67 75
81 90 14 14 30 34 35 43 5 9 32 40 59 70 28 29 109 121 180 203 71 83 132 152
135 155 3 3 20 23 39 45 18 22 54 63 80 90 25 28 60 66 76 86 17 19 50 60 75
89 25 30 71 82 104 117 32 34 68 76 80 92 12 16 50 60 84 97 73 81 90 100 157
179 28 32 75 85 105 118 30 33 62 70 70 83 9 12 25 31 36 41 18 16 55 58 203
233 25 30 70 80 99 111 29 32 66 75 82 97 16 22 33 43 39 47 6 3 84 90 172
193 89 103 167 192 173 197 15 13 393 446 426 488 14 18 36 43 50 57 14 14 50
54 80 90 30 35 64 75 74 87 11 13 21 23 24 23 2 0 24 -12 50 -27z m-7765 -11
c36 -20 102 -63 131 -86 10 -8 16 -21 13 -28 -5 -12 -200 -282 -233 -321 -8
-10 -32 -42 -52 -70 -20 -29 -46 -65 -59 -82 -13 -16 -27 -34 -31 -40 -4 -5
-61 -84 -127 -175 -66 -91 -150 -205 -187 -255 -37 -49 -80 -108 -96 -130 -78
-108 -225 -308 -294 -401 -43 -57 -90 -123 -105 -146 -15 -24 -32 -46 -36 -49
-5 -3 -41 -51 -80 -107 -119 -165 -230 -317 -236 -322 -4 -3 -37 -49 -74 -102
-37 -53 -73 -102 -80 -110 -8 -7 -35 -45 -62 -83 -26 -39 -61 -84 -76 -100
-16 -17 -29 -34 -29 -39 0 -4 -26 -42 -58 -84 -56 -74 -194 -259 -238 -321
-73 -102 -339 -467 -344 -471 -3 -3 -18 -22 -33 -43 -24 -32 -32 -36 -55 -31
-15 4 -31 10 -37 14 -5 3 -30 12 -55 19 -54 15 -199 75 -249 104 -70 40 -191
120 -191 126 0 7 185 223 240 280 14 14 43 47 167 191 12 14 31 36 43 50 12
14 43 49 68 79 77 88 182 208 217 247 11 12 43 48 70 80 28 32 68 79 90 104
57 64 57 64 89 101 16 19 45 52 65 74 20 22 61 69 91 104 30 36 60 69 65 75 6
6 39 45 75 86 36 41 101 116 145 165 138 156 260 296 319 365 74 88 212 247
222 255 6 6 44 48 85 95 41 47 76 87 79 90 3 3 15 17 27 32 19 26 122 143 168
192 11 12 45 51 75 86 30 36 73 85 96 110 23 25 68 77 100 115 32 39 85 98
119 133 33 35 65 71 70 81 14 25 139 161 148 161 4 0 22 -8 40 -18z"/>
<path d="M9025 5008 c-61 -23 -117 -70 -137 -115 -35 -79 -42 -208 -14 -268 9
-19 23 -51 32 -71 34 -73 157 -178 259 -221 76 -33 182 -21 282 30 19 10 41
38 62 80 28 56 33 76 37 159 l4 94 -46 70 c-73 111 -128 169 -200 209 -62 35
-75 38 -158 41 -52 2 -104 -1 -121 -8z"/>
<path d="M10492 5010 c-76 -17 -227 -147 -270 -233 -45 -90 -52 -249 -14 -324
19 -37 82 -97 127 -121 91 -48 278 1 386 101 52 49 116 141 129 186 11 38 11
198 0 248 -9 37 -26 57 -109 121 -30 24 -43 26 -125 28 -50 0 -106 -2 -124 -6z"/>
<path d="M4823 3475 c-12 -22 2 -83 54 -240 22 -66 60 -181 83 -255 23 -74 64
-200 90 -280 25 -80 63 -199 84 -265 21 -66 48 -151 61 -190 30 -92 82 -254
140 -438 39 -124 51 -150 71 -159 24 -11 73 -5 249 32 56 12 82 16 141 25 22
3 55 10 72 15 18 5 32 7 32 4 0 -3 8 0 18 5 11 6 41 13 68 16 27 4 56 8 64 10
8 2 35 7 60 10 25 3 72 12 105 20 33 8 112 23 176 34 63 11 146 27 185 35 38
8 85 17 104 20 92 13 120 18 180 32 86 20 100 23 146 29 62 9 144 25 209 40
33 8 76 16 95 19 81 10 163 30 181 45 34 29 14 55 -104 135 -179 120 -346 241
-432 312 -22 19 -98 82 -170 140 -71 59 -136 116 -143 126 -7 10 -17 18 -23
18 -15 0 -403 381 -549 538 -43 47 -85 84 -100 87 -14 3 -104 7 -200 10 -96 3
-209 8 -250 10 -41 2 -120 7 -175 10 -107 6 -185 14 -219 22 -54 13 -169 32
-228 38 -56 6 -67 4 -75 -10z"/>
</g>
</svg>
